<!--?xml version="1.0" encoding="utf-8"?-->
<!-- Generator: Adobe Illustrator 18.1.1, SVG Export Plug-In . SVG Version: 6.00 Build 0)  -->

<svg version="1.1" id="_x32_" xmlns="http://www.w3.org/2000/svg" xmlns:xlink="http://www.w3.org/1999/xlink" x="0px" y="0px" viewBox="0 0 512 512" style="width: 512px; height: 512px; opacity: 1;" xml:space="preserve">
<style type="text/css">
	.st0{fill:#4B4B4B;}
</style>
<g>
	<path class="st0" d="M74.143,116.17c-30.136,0-54.584,24.44-54.584,54.583c0,30.152,24.448,54.584,54.584,54.584
		c30.152,0,54.584-24.432,54.584-54.584C128.727,140.61,104.295,116.17,74.143,116.17z" style="fill: rgb(75, 75, 75);"></path>
	<path class="st0" d="M74.119,258.935c-25.85,0-47.731,19.98-46.82,46.812l12.834,172.26C41.615,497.456,55.352,512,74.119,512
		c18.775,0,32.251-14.077,33.994-33.994l12.826-172.26C122.564,278.915,99.977,258.935,74.119,258.935z" style="fill: rgb(75, 75, 75);"></path>
	<path class="st0" d="M437.857,225.337c30.144,0,54.584-24.432,54.584-54.584c0-30.144-24.44-54.583-54.584-54.583
		s-54.583,24.44-54.583,54.583C383.274,200.906,407.713,225.337,437.857,225.337z" style="fill: rgb(75, 75, 75);"></path>
	<path class="st0" d="M437.833,258.935c-25.858,0-47.738,19.98-46.819,46.812l12.834,172.26
		C405.329,497.456,419.058,512,437.833,512c18.776,0,32.251-14.077,33.986-33.994l12.826-172.26
		C486.269,278.915,463.691,258.935,437.833,258.935z" style="fill: rgb(75, 75, 75);"></path>
	<path class="st0" d="M327.731,87.405l-3.446,12.652c10.94,2.979,20.201,8.548,26.578,15.495c6.402,6.98,9.927,15.164,9.934,23.973
		c-0.007,7.09-2.289,13.744-6.496,19.742c-4.207,5.981-10.371,11.234-17.952,15.116l-5.538,2.836l7.177,16.05
		c-21.754-3.787-41.94-10.845-52.135-14.822l-0.206-0.08l-0.206-0.063c-13.689-4.294-24.36-12.732-29.796-22.698l-11.502,6.315
		c7.352,13.372,20.716,23.528,36.956,28.749v0.008c12.62,4.888,39.144,14.188,67.006,17.31l11.4,1.259l-11.78-26.34
		c6.916-4.357,12.842-9.753,17.302-16.098c5.594-7.922,8.897-17.302,8.882-27.284c0.015-12.438-5.11-23.877-13.382-32.845
		C352.243,97.68,340.834,90.97,327.731,87.405z" style="fill: rgb(75, 75, 75);"></path>
	<path class="st0" d="M301.144,119.276c10.632-12.145,17.088-27.244,17.08-43.564c0.008-10.671-2.757-20.867-7.645-30.009
		c-7.351-13.737-19.425-25.129-34.358-33.122C261.272,4.603,243.415,0.008,224.252,0c-25.525,0.008-48.777,8.16-65.864,21.667
		c-8.548,6.758-15.559,14.878-20.447,24.036c-4.896,9.142-7.645,19.338-7.645,30.009c-0.008,13.61,4.484,26.413,12.168,37.313
		c6.568,9.324,15.448,17.294,25.921,23.537l-15.773,35.285l11.392-1.26c39.349-4.405,77.019-17.595,94.908-24.519
		C275.913,140.634,290.584,131.341,301.144,119.276z M254.364,133.758l-0.206,0.079c-15.48,6.021-46.796,16.954-80.084,22.142
		l11.281-25.216l-5.537-2.836c-11.179-5.72-20.329-13.507-26.626-22.451c-6.306-8.968-9.769-19.036-9.776-29.763
		c0-8.422,2.138-16.422,6.092-23.83c5.918-11.091,16.011-20.796,28.971-27.72c12.961-6.932,28.734-11.043,45.774-11.035
		c22.744-0.008,43.2,7.32,57.745,18.83c7.273,5.752,13.063,12.533,17.009,19.924c3.953,7.408,6.091,15.408,6.1,23.83
		c-0.008,12.834-4.983,24.78-13.84,34.929c-8.842,10.124-21.596,18.308-36.696,23.061L254.364,133.758z" style="fill: rgb(75, 75, 75);"></path>
	<path class="st0" d="M187.2,67.362c-5.64,0-10.204,4.571-10.204,10.204c0,5.633,4.563,10.204,10.204,10.204
		c5.633,0,10.204-4.57,10.204-10.204C197.403,71.933,192.833,67.362,187.2,67.362z" style="fill: rgb(75, 75, 75);"></path>
	<path class="st0" d="M226.557,67.362c-5.64,0-10.212,4.571-10.212,10.204c0,5.633,4.571,10.204,10.212,10.204
		c5.632,0,10.204-4.57,10.204-10.204C236.761,71.933,232.19,67.362,226.557,67.362z" style="fill: rgb(75, 75, 75);"></path>
	<path class="st0" d="M265.907,67.362c-5.633,0-10.204,4.571-10.204,10.204c0,5.633,4.571,10.204,10.204,10.204
		c5.641,0,10.212-4.57,10.212-10.204C276.119,71.933,271.547,67.362,265.907,67.362z" style="fill: rgb(75, 75, 75);"></path>
</g>
</svg>
