<!--?xml version="1.0" encoding="utf-8"?-->
<!-- Generator: Adobe Illustrator 15.1.0, SVG Export Plug-In . SVG Version: 6.00 Build 0)  -->

<svg version="1.1" id="_x32_" xmlns="http://www.w3.org/2000/svg" xmlns:xlink="http://www.w3.org/1999/xlink" x="0px" y="0px" width="512px" height="512px" viewBox="0 0 512 512" style="width: 512px; height: 512px; opacity: 1;" xml:space="preserve">
<style type="text/css">

	.st0{fill:#4B4B4B;}

</style>
<g>
	<path class="st0" d="M430.739,166.281c-9.093-28.906-26.375-52.859-48.453-70.25c-3.578-2.813-7.266-5.438-11.078-7.906
		c-34.953-22.563-79.313-29.938-122.078-16.469s-74.891,44.922-90.609,83.469c-1.719,4.188-3.234,8.469-4.563,12.813
		c-8.125,26.906-8.547,56.438,0.547,85.313c9.078,28.844,26.344,52.813,48.391,70.219c3.594,2.813,7.25,5.438,11.078,7.906
		c34.953,22.563,79.328,30,122.141,16.516s74.922-45.016,90.656-83.547c1.703-4.188,3.203-8.438,4.531-12.813
		C439.396,224.656,439.817,195.094,430.739,166.281z M354.162,109.594c-6.188,6.156-13.422,12.031-21.359,17.578
		c-11.234-15.453-23.922-27.484-36.891-35C316.708,92.781,336.802,98.906,354.162,109.594z M297.037,201.234l-11.156-35.422
		c15.656-5.406,30.172-12.125,43.109-19.875c7.281,11.797,13.531,25.094,18.531,39.406L297.037,201.234z M351.583,198.281
		c4.125,14.609,6.609,29.094,7.422,42.953c-15.047,1.063-30.781,3.875-46.719,8.422l-11.172-35.469L351.583,198.281z
		 M288.177,218.25l11.156,35.469c-15.641,5.406-30.156,12.125-43.094,19.906c-7.281-11.828-13.547-25.125-18.547-39.469
		L288.177,218.25z M233.615,221.219c-4.094-14.609-6.594-29.094-7.406-42.938c15.047-1.047,30.797-3.844,46.734-8.406l11.156,35.438
		L233.615,221.219z M305.146,116.063c5.734,5.344,11.141,11.641,16.203,18.531c-11.906,7.094-25.219,13.281-39.531,18.281
		L264.208,97C276.646,96.125,290.912,102.688,305.146,116.063z M228.63,140.156c4.016-19.125,11.969-32.656,22.641-39.063
		l17.578,55.844c-14.563,4.125-29.047,6.688-42.859,7.688C226.193,156.063,227.005,147.828,228.63,140.156z M222.521,115.281
		c-6.328,13.594-9.813,30.719-10.172,49.844c-9.703,0-19.016-0.688-27.609-2.188C192.88,144.234,205.833,127.688,222.521,115.281z
		 M179.943,175.891c10.172,1.953,21.172,2.891,32.688,2.859c0.828,14.844,3.438,30.563,7.953,46.563l-41.984,13.219
		C173.224,217.25,173.974,195.703,179.943,175.891z M182.677,251.5l41.984-13.234c5.453,15.703,12.344,30.109,20.172,42.75
		c-9.438,6.547-17.891,13.641-25.094,21.078C203.443,289.281,190.458,272,182.677,251.5z M231.083,309.938
		c6.172-6.156,13.406-12.031,21.359-17.563c11.25,15.453,23.938,27.469,36.906,35C268.552,326.766,248.474,320.609,231.083,309.938z
		 M280.068,303.469c-5.734-5.375-11.109-11.656-16.172-18.531c11.891-7.094,25.203-13.281,39.531-18.266L320.99,322.5
		C308.568,323.375,294.302,316.813,280.068,303.469z M356.583,279.344c-4.016,19.125-11.953,32.656-22.641,39.063l-17.578-55.813
		c14.578-4.125,29.047-6.656,42.859-7.672C359.021,263.469,358.208,271.688,356.583,279.344z M340.396,138.531
		c9.438-6.563,17.906-13.625,25.125-21.031c16.281,12.797,29.266,30.016,37.031,50.516l-42.016,13.219
		C355.099,165.547,348.208,151.172,340.396,138.531z M362.662,304.281c6.328-13.594,9.828-30.719,10.203-49.844
		c9.672,0,18.969,0.688,27.547,2.188C392.302,275.313,379.38,291.844,362.662,304.281z M405.193,243.625
		c-10.156-1.969-21.125-2.906-32.609-2.875c-0.828-14.828-3.422-30.563-7.969-46.563l42-13.219
		C412.005,202.219,411.208,223.781,405.193,243.625z" style="fill: rgb(75, 75, 75);"></path>
	<path class="st0" d="M375.474,415.406l29.094-11.953l-15.922-38.734l-29.078,11.938c-89.875,36.922-193.031-6.156-229.938-96.031
		c-36.922-89.875,6.172-193.031,96.047-229.938l29.094-11.953L238.865,0l-29.094,11.938
		C98.537,57.625,45.208,185.297,90.896,296.531c32.188,78.375,105.109,127.938,184.281,134.438v39.156h-92.422V512h216.328v-41.875
		h-89.016v-39.094C332.005,429.281,354.037,424.188,375.474,415.406z" style="fill: rgb(75, 75, 75);"></path>
</g>
</svg>
