<?xml version="1.0" standalone="no"?>
<!DOCTYPE svg PUBLIC "-//W3C//DTD SVG 20010904//EN"
 "http://www.w3.org/TR/2001/REC-SVG-20010904/DTD/svg10.dtd">
<svg version="1.0" xmlns="http://www.w3.org/2000/svg"
 width="300.000000pt" height="300.000000pt" viewBox="0 0 300.000000 300.000000"
 preserveAspectRatio="xMidYMid meet">

<g transform="translate(0.000000,300.000000) scale(0.100000,-0.100000)"
fill="#000000" stroke="none">
<path d="M2140 1773 c-48 -14 -96 -34 -110 -47 -14 -13 -30 -22 -36 -19 -27 9
-171 -148 -189 -207 -5 -17 7 -7 38 31 26 31 63 70 84 87 36 28 223 127 223
118 0 -3 -33 -23 -74 -45 -86 -48 -184 -123 -167 -129 11 -4 108 16 124 25 5
3 0 11 -10 19 -17 13 -16 14 9 8 37 -8 89 11 122 45 l28 29 -29 10 -28 10 27
1 c28 1 64 31 74 64 3 10 4 20 2 21 -1 1 -41 -8 -88 -21z"/>
<path d="M913 1576 c15 -11 17 -31 17 -151 0 -120 -2 -140 -17 -151 -16 -12
-9 -13 50 -14 72 0 82 5 42 20 -22 8 -25 15 -25 58 l0 49 46 6 c58 6 97 34
108 79 11 43 -8 87 -44 105 -14 7 -61 13 -110 13 -73 -1 -82 -3 -67 -14z m157
-22 c9 -9 15 -33 15 -58 0 -56 -25 -86 -72 -86 l-33 0 0 73 c0 45 5 78 12 85
15 15 56 7 78 -14z"/>
<path d="M1233 1500 c-41 -17 -65 -68 -60 -133 4 -67 24 -94 80 -107 37 -8 83
7 99 33 16 24 7 28 -18 8 -15 -12 -37 -21 -50 -21 -31 0 -64 45 -64 86 l0 34
70 0 c67 0 70 1 70 24 0 38 -10 56 -41 71 -32 17 -54 18 -86 5z m67 -29 c21
-40 13 -51 -36 -51 -42 0 -45 1 -38 23 15 49 54 64 74 28z"/>
<path d="M1426 1502 c-37 -3 -38 -4 -17 -18 19 -14 21 -25 21 -103 0 -81 -2
-90 -22 -104 -22 -15 -21 -16 35 -16 61 -1 66 2 42 25 -18 18 -20 91 -4 147
12 45 49 68 74 47 23 -19 22 -188 -2 -206 -16 -12 -10 -13 40 -14 31 0 57 4
57 10 0 6 -7 10 -15 10 -12 0 -15 16 -15 86 0 81 -10 120 -34 136 -21 14 -63
8 -89 -12 -24 -19 -26 -19 -29 -3 -2 14 -11 17 -42 15z"/>
<path d="M1765 1421 c5 -25 3 -30 -17 -33 -32 -4 -62 -67 -48 -103 9 -24 12
-25 104 -25 l94 0 7 29 c8 38 -17 89 -50 101 -26 10 -32 24 -15 35 23 14 7 25
-36 25 -45 0 -46 0 -39 -29z m74 -51 c19 0 41 -38 41 -70 0 -18 -7 -20 -80
-20 -77 0 -80 1 -80 23 0 45 46 82 88 71 8 -2 22 -4 31 -4z"/>
</g>
</svg>
