<!--?xml version="1.0" encoding="utf-8"?-->
<!-- Generator: Adobe Illustrator 18.0.0, SVG Export Plug-In . SVG Version: 6.00 Build 0)  -->

<svg version="1.1" id="_x32_" xmlns="http://www.w3.org/2000/svg" xmlns:xlink="http://www.w3.org/1999/xlink" x="0px" y="0px" viewBox="0 0 512 512" style="width: 512px; height: 512px; opacity: 1;" xml:space="preserve">
<style type="text/css">
	.st0{fill:#4B4B4B;}
</style>
<g>
	<path class="st0" d="M436.984,161.361C346.396,48.063,308.508,2.11,308.508,2.11c-2.761-3.349-5.837-2.633-6.835,1.591
		L291.51,46.708l-19.593,82.905l-56.362,238.489c-18.7-17.495-45.789-28.356-75.824-28.035
		c-55.816,0.595-100.654,39.565-100.148,87.041c0.506,47.476,46.165,85.481,101.982,84.886
		c44.004-0.469,81.178-24.792,94.696-58.328l0.273,0.064l0.464-1.965c2.174-5.834,3.64-11.93,4.306-18.219l67.779-286.798
		c29.433,11.045,74.29,35.769,110.116,89.873c30.628,46.253-9.984,120.34-28.468,149.763c-5.043,8.028-0.18,7.234,3.912,4.168
		C452.665,347.074,512.4,255.684,436.984,161.361z" style="fill: rgb(75, 75, 75);"></path>
</g>
</svg>
