<!--?xml version="1.0" encoding="utf-8"?-->
<!-- Generator: Adobe Illustrator 18.1.1, SVG Export Plug-In . SVG Version: 6.00 Build 0)  -->

<svg version="1.1" id="_x32_" xmlns="http://www.w3.org/2000/svg" xmlns:xlink="http://www.w3.org/1999/xlink" x="0px" y="0px" viewBox="0 0 512 512" style="width: 512px; height: 512px; opacity: 1;" xml:space="preserve">
<style type="text/css">
	.st0{fill:#4B4B4B;}
</style>
<g>
	<path class="st0" d="M61.653,40.3l130.992,21.523l-11.25,54.106h134.616l4.342-33.135l25.949,4.267l94.24-18.55
		c3.616-0.696,6.203-3.889,6.173-7.566c-0.045-3.677-2.708-6.801-6.339-7.437L133.175,0L60.367,25.571
		c-3.299,1.157-5.372,4.388-5.084,7.868C55.6,36.911,58.218,39.74,61.653,40.3z" style="fill: rgb(75, 75, 75);"></path>
	<path class="st0" d="M143.569,76.19c0.121-4.01-3.041-7.338-7.036-7.452c-3.994-0.122-7.338,3.034-7.459,7.036
		c-0.106,4.002,3.041,7.346,7.051,7.466C140.119,83.346,143.463,80.184,143.569,76.19z" style="fill: rgb(75, 75, 75);"></path>
	<path class="st0" d="M136.125,111.686c3.994,0.113,7.338-3.041,7.444-7.051c0.121-3.994-3.041-7.338-7.036-7.452
		c-3.994-0.105-7.338,3.049-7.459,7.059C128.968,108.244,132.115,111.565,136.125,111.686z" style="fill: rgb(75, 75, 75);"></path>
	<path class="st0" d="M136.125,140.138c3.994,0.106,7.338-3.034,7.444-7.042c0.121-3.995-3.041-7.339-7.036-7.46
		c-3.994-0.09-7.338,3.042-7.459,7.058C128.968,136.682,132.115,140.025,136.125,140.138z" style="fill: rgb(75, 75, 75);"></path>
	<path class="st0" d="M136.049,171.224c5.447,0.16,10.001-4.138,10.168-9.592c0.151-5.478-4.146-10.017-9.608-10.168
		c-5.462-0.167-10.016,4.138-10.168,9.6C126.29,166.526,130.587,171.088,136.049,171.224z" style="fill: rgb(75, 75, 75);"></path>
	<path class="st0" d="M121.131,72.702c0.121-4.002-3.026-7.346-7.036-7.459c-3.994-0.114-7.339,3.034-7.444,7.043
		c-0.122,4.009,3.026,7.338,7.036,7.436C117.681,79.859,121.024,76.689,121.131,72.702z" style="fill: rgb(75, 75, 75);"></path>
	<path class="st0" d="M113.687,108.206c3.994,0.091,7.338-3.057,7.444-7.066c0.121-3.995-3.026-7.323-7.036-7.445
		c-3.994-0.113-7.339,3.034-7.444,7.044C106.529,104.741,109.677,108.077,113.687,108.206z" style="fill: rgb(75, 75, 75);"></path>
	<path class="st0" d="M113.687,136.651c3.994,0.105,7.338-3.041,7.444-7.036c0.121-4.009-3.026-7.353-7.036-7.466
		c-3.994-0.106-7.339,3.034-7.444,7.044C106.529,133.201,109.677,136.53,113.687,136.651z" style="fill: rgb(75, 75, 75);"></path>
	<path class="st0" d="M113.611,167.744c5.462,0.152,10.017-4.161,10.168-9.607c0.151-5.477-4.145-10.017-9.608-10.176
		c-5.462-0.159-10.001,4.153-10.168,9.608C103.851,163.023,108.149,167.593,113.611,167.744z" style="fill: rgb(75, 75, 75);"></path>
	<path class="st0" d="M98.692,69.214c0.122-4.01-3.026-7.353-7.036-7.452c-3.994-0.122-7.338,3.034-7.444,7.02
		c-0.121,4.017,3.042,7.353,7.036,7.459C95.242,76.356,98.587,73.209,98.692,69.214z" style="fill: rgb(75, 75, 75);"></path>
	<path class="st0" d="M91.248,104.71c3.994,0.114,7.339-3.056,7.444-7.043c0.122-4.002-3.026-7.346-7.036-7.46
		c-3.994-0.121-7.338,3.034-7.444,7.044C84.091,101.261,87.254,104.582,91.248,104.71z" style="fill: rgb(75, 75, 75);"></path>
	<path class="st0" d="M91.248,133.148c3.994,0.114,7.339-3.026,7.444-7.028c0.122-4.002-3.026-7.354-7.036-7.46
		c-3.994-0.106-7.338,3.026-7.444,7.05C84.091,129.706,87.254,133.042,91.248,133.148z" style="fill: rgb(75, 75, 75);"></path>
	<path class="st0" d="M91.172,164.249c5.462,0.159,10.016-4.146,10.168-9.6c0.152-5.462-4.145-10.024-9.608-10.176
		c-5.447-0.143-10.001,4.146-10.168,9.615C81.413,159.558,85.71,164.097,91.172,164.249z" style="fill: rgb(75, 75, 75);"></path>
	<path class="st0" d="M76.269,65.712c0.106-4.01-3.041-7.338-7.051-7.444c-3.994-0.121-7.338,3.026-7.444,7.028
		c-0.121,4.01,3.041,7.346,7.036,7.459C72.819,72.861,76.148,69.714,76.269,65.712z" style="fill: rgb(75, 75, 75);"></path>
	<path class="st0" d="M68.809,101.208c4.01,0.113,7.338-3.034,7.459-7.043c0.106-3.994-3.041-7.339-7.051-7.452
		c-3.994-0.106-7.338,3.048-7.444,7.042C61.653,97.765,64.815,101.102,68.809,101.208z" style="fill: rgb(75, 75, 75);"></path>
	<path class="st0" d="M68.809,129.676c4.01,0.098,7.338-3.057,7.459-7.051c0.106-4.01-3.041-7.338-7.051-7.452
		c-3.994-0.121-7.338,3.034-7.444,7.044C61.653,126.211,64.815,129.554,68.809,129.676z" style="fill: rgb(75, 75, 75);"></path>
	<path class="st0" d="M68.733,160.762c5.462,0.159,10.017-4.146,10.168-9.608c0.152-5.462-4.145-10.009-9.608-10.16
		c-5.462-0.166-10.001,4.138-10.168,9.585C58.975,156.063,63.272,160.602,68.733,160.762z" style="fill: rgb(75, 75, 75);"></path>
	<path class="st0" d="M369.49,107.479c3.994-0.106,7.156-3.464,7.036-7.46c-0.106-3.994-3.45-7.149-7.444-7.028
		c-4.01,0.106-7.157,3.435-7.051,7.444C362.151,104.438,365.48,107.585,369.49,107.479z" style="fill: rgb(75, 75, 75);"></path>
	<path class="st0" d="M369.49,135.932c3.994-0.114,7.156-3.443,7.036-7.452c-0.106-3.995-3.45-7.164-7.444-7.044
		c-4.01,0.113-7.157,3.458-7.051,7.452C362.151,132.899,365.48,136.046,369.49,135.932z" style="fill: rgb(75, 75, 75);"></path>
	<path class="st0" d="M369.49,164.4c3.994-0.121,7.156-3.465,7.036-7.46c-0.106-4.01-3.45-7.164-7.444-7.043
		c-4.01,0.114-7.157,3.457-7.051,7.452C362.151,161.344,365.48,164.499,369.49,164.4z" style="fill: rgb(75, 75, 75);"></path>
	<path class="st0" d="M369.566,195.486c5.462-0.152,9.759-4.698,9.608-10.16c-0.151-5.47-4.706-9.775-10.168-9.608
		c-5.462,0.152-9.76,4.698-9.608,10.168C359.549,191.34,364.103,195.645,369.566,195.486z" style="fill: rgb(75, 75, 75);"></path>
	<path class="st0" d="M391.929,103.977c3.994-0.098,7.156-3.443,7.036-7.437c-0.106-4.01-3.45-7.157-7.445-7.05
		c-4.009,0.113-7.171,3.45-7.05,7.466C384.59,100.943,387.919,104.098,391.929,103.977z" style="fill: rgb(75, 75, 75);"></path>
	<path class="st0" d="M391.929,132.452c3.994-0.122,7.156-3.457,7.036-7.467c-0.106-4.002-3.45-7.156-7.445-7.036
		c-4.009,0.091-7.171,3.442-7.05,7.444C384.59,129.396,387.919,132.551,391.929,132.452z" style="fill: rgb(75, 75, 75);"></path>
	<path class="st0" d="M391.929,160.897c3.994-0.113,7.156-3.442,7.036-7.46c-0.106-4.002-3.45-7.141-7.445-7.036
		c-4.009,0.114-7.171,3.458-7.05,7.467C384.59,157.864,387.919,161.011,391.929,160.897z" style="fill: rgb(75, 75, 75);"></path>
	<path class="st0" d="M392.003,191.998c5.462-0.159,9.76-4.706,9.609-10.176c-0.152-5.454-4.706-9.759-10.184-9.6
		c-5.447,0.152-9.744,4.69-9.593,10.16C381.988,187.845,386.542,192.142,392.003,191.998z" style="fill: rgb(75, 75, 75);"></path>
	<path class="st0" d="M414.367,100.497c3.994-0.114,7.156-3.465,7.036-7.467c-0.106-4.002-3.45-7.134-7.445-7.021
		c-4.01,0.106-7.172,3.435-7.05,7.445C407.029,97.456,410.357,100.595,414.367,100.497z" style="fill: rgb(75, 75, 75);"></path>
	<path class="st0" d="M414.367,128.957c3.994-0.121,7.156-3.458,7.036-7.467c-0.106-3.994-3.45-7.149-7.445-7.036
		c-4.01,0.121-7.172,3.45-7.05,7.467C407.029,125.908,410.357,129.078,414.367,128.957z" style="fill: rgb(75, 75, 75);"></path>
	<path class="st0" d="M414.367,157.41c3.994-0.113,7.156-3.457,7.036-7.46c-0.106-4.009-3.45-7.148-7.445-7.028
		c-4.01,0.098-7.172,3.435-7.05,7.444C407.029,154.369,410.357,157.516,414.367,157.41z" style="fill: rgb(75, 75, 75);"></path>
	<path class="st0" d="M414.442,188.495c5.462-0.159,9.76-4.706,9.593-10.168c-0.136-5.455-4.705-9.744-10.168-9.608
		c-5.447,0.159-9.744,4.713-9.593,10.183C404.426,184.358,408.98,188.662,414.442,188.495z" style="fill: rgb(75, 75, 75);"></path>
	<path class="st0" d="M436.805,97.009c3.995-0.122,7.157-3.45,7.036-7.467c-0.106-3.987-3.45-7.142-7.459-7.043
		c-3.995,0.128-7.157,3.45-7.036,7.459C429.467,93.976,432.796,97.122,436.805,97.009z" style="fill: rgb(75, 75, 75);"></path>
	<path class="st0" d="M436.805,125.462c3.995-0.113,7.157-3.457,7.036-7.452c-0.106-4.002-3.45-7.156-7.459-7.043
		c-3.995,0.098-7.157,3.443-7.036,7.467C429.467,122.428,432.796,125.583,436.805,125.462z" style="fill: rgb(75, 75, 75);"></path>
	<path class="st0" d="M436.805,153.922c3.995-0.113,7.157-3.457,7.036-7.466c-0.106-3.994-3.45-7.15-7.459-7.028
		c-3.995,0.106-7.157,3.434-7.036,7.452C429.467,150.874,432.796,154.028,436.805,153.922z" style="fill: rgb(75, 75, 75);"></path>
	<path class="st0" d="M436.881,185.008c5.462-0.151,9.76-4.706,9.593-10.182c-0.151-5.44-4.706-9.744-10.168-9.585
		c-5.447,0.151-9.744,4.698-9.593,10.16C426.864,180.87,431.419,185.174,436.881,185.008z" style="fill: rgb(75, 75, 75);"></path>
	<path class="st0" d="M239.874,222.668h-33.65C228.663,248.2,239.874,222.668,239.874,222.668z" style="fill: rgb(75, 75, 75);"></path>
	<path class="st0" d="M181.531,222.668h-26.176C172.816,248.2,181.531,222.668,181.531,222.668z" style="fill: rgb(75, 75, 75);"></path>
	<path class="st0" d="M257.638,189.23c0,0-15.962,7.974-24.935,9.971c-13.633,3.034-24.088,7.247-24.935,12.959
		C218.737,211.168,252.645,211.168,257.638,189.23z" style="fill: rgb(75, 75, 75);"></path>
	<path class="st0" d="M172.363,200.471c-5.916-1.649-16.448-8.231-16.448-8.231c3.299,18.104,25.677,18.104,32.909,18.921
		C188.264,206.448,181.381,202.968,172.363,200.471z" style="fill: rgb(75, 75, 75);"></path>
	<path class="st0" d="M358.248,307.497c0,0-28.135,61.914-212.001,129.456c-20.638-13.133-33.771-60.242-33.771-82.559
		C61.819,410.255,39.441,467.774,44.797,512c35.98,0,56.149,0,73.307,0h16.886h332.227C467.217,512,484.149,379.185,358.248,307.497
		z" style="fill: rgb(75, 75, 75);"></path>
	<path class="st0" d="M148.487,391.153c3.994,0.998,119.092-41.533,151.577-74.79c41.881-42.872,40.882-78.777,40.882-100.708
		c0-21.947-7.974-83.77-55.846-83.77H176.417c0,0-12.966,6.975-11.968,19.942c12.952-2.996,29.913,2.996,36.888,15.963
		c16.946-23.929,47.873-25.934,62.822-9.971c14.964,15.948,13.965,43.871,1.997,52.844c5.992,10.977,17.944,31.91,10.969,59.841
		c-6.975,27.916-29.913,35.889-34.906,35.889c-4.978,0-10.969-43.878-57.829-32.901c-31.91-9.979-43.878,4.986-45.875,17.945
		c-1.998,12.966,5.855,38.235,7.974,53.857C149.485,367.224,144.492,390.162,148.487,391.153z M310.095,219.255
		c10.425-1.15,15.086,26.547-11.56,38.19C298.535,257.445,299.685,220.414,310.095,219.255z M179.398,279.475
		c0,0,7.988,0.998,14.964,8.972c6.975,7.982,11.969,22.937,34.906,22.937c0,1.99-32.924,20.94-51.867,27.916
		c0-8.979-23.922-22.937-25.918-32.908C165.448,297.428,174.42,281.464,179.398,279.475z" style="fill: rgb(75, 75, 75);"></path>
</g>
</svg>
