<!--?xml version="1.0" encoding="utf-8"?-->
<!-- Generator: Adobe Illustrator 18.1.1, SVG Export Plug-In . SVG Version: 6.00 Build 0)  -->

<svg version="1.1" id="_x32_" xmlns="http://www.w3.org/2000/svg" xmlns:xlink="http://www.w3.org/1999/xlink" x="0px" y="0px" viewBox="0 0 512 512" style="width: 512px; height: 512px; opacity: 1;" xml:space="preserve">
<style type="text/css">
	.st0{fill:#4B4B4B;}
</style>
<g>
	<path class="st0" d="M151.767,86.77l11.208,12.178c9.7-1.328,19.802-2.146,30.457-2.539c0.36-2.021,0.748-4.082,1.176-6.2
		c7.085-35.425,42.51-28.804,61.398-28.804c18.889,0,54.314-6.621,61.399,28.804c0.733,3.716,1.356,7.23,1.923,10.641
		c0.817,0.007,1.633,0.034,2.45,0.034c2.518,0,4.954-0.028,7.361-0.076l11.195-16.786l13.409,15.65
		c9.672-0.74,18.653-1.84,27.371-3.245C367.982,46.26,332.073,0,256.006,0c-80.992,0-116.459,52.992-127.377,106.129
		c4.29-1.224,8.676-2.373,13.284-3.397L151.767,86.77z" style="fill: rgb(75, 75, 75);"></path>
	<path class="st0" d="M443.163,401.518c-12.218-18.308-30.582-28.665-48.1-35.48c3.93-5.507,8.814-16.364,7.362-35.404
		c-2.366-30.699-14.447-44.384-18.903-75.575c-4.331-30.36,13.16-90.782,5.092-125.377c-19.912,3.363-40.849,5.044-63.765,5.175
		c2.366,10.42,5.937,22.473,13.811,28.098c12.108,8.662,10.254,41.403,4.691,66.656c-1.121,0.554-2.353,1.066-3.764,1.571
		l-4.262,1.516l-0.789,4.47c-1.412,7.942-3.653,14.806-6.282,20.964c-14.433-0.768-41.79-31.412-72.248-31.412
		c-30.457,0-57.828,30.644-72.247,31.412c-2.643-6.158-4.871-13.022-6.296-20.964l-0.788-4.47l-4.262-1.516
		c-1.411-0.505-2.643-1.016-3.764-1.571c-5.563-25.254-7.417-57.994,4.704-66.656c8.87-6.338,12.288-19.684,14.655-32.194
		c-21.628,1.232-40.434,4.573-58.23,10.572c-1.522,0.512-3.113,0.761-4.704,0.83c-0.553,41.652,7.445,84.598,3.404,112.896
		c-4.442,31.191-16.536,44.876-18.888,75.575c-1.452,18.785,3.294,29.586,7.196,35.155c-11.5,4.484-23.22,10.51-33.474,19.29
		c-8.081,6.94-15.166,15.664-20.162,26.499c-4.995,10.822-7.859,23.691-7.859,38.746c0,3.494,0.152,7.112,0.47,10.848
		c0.235,2.616,1.231,4.747,2.394,6.504c2.228,3.266,5.189,5.701,8.884,8.199c6.49,4.29,15.471,8.476,26.97,12.6
		c34.415,12.274,91.386,23.51,161.999,23.524c57.358,0,105.776-7.445,140.343-16.799c17.284-4.691,31.094-9.825,41.071-14.945
		c4.996-2.588,9.036-5.134,12.233-7.929c1.605-1.412,3.017-2.892,4.193-4.65c1.176-1.757,2.172-3.888,2.394-6.504
		c0.318-3.736,0.47-7.341,0.47-10.821C456.738,430.288,451.577,414.111,443.163,401.518z M256.006,247.974
		c0,0,14.156,21.249,47.229,23.615c-4.733,16.536-47.229,14.17-47.229,14.17s-42.51,2.366-47.228-14.17
		C241.836,269.222,256.006,247.974,256.006,247.974z M440.742,459.174l-0.678,0.796c-1.148,1.162-3.46,2.906-6.726,4.767
		c-11.485,6.635-34.165,14.779-64.609,20.971c-29.322,6.006-66.048,10.324-107.768,10.649v-76.752l78.806-18.017l-2.214-9.666
		l-81.547,18.64l-81.546-18.64l-2.214,9.666l78.792,18.017v76.73c-53.788-0.415-99.259-7.5-131.307-16.176
		c-16.508-4.469-29.488-9.368-38.013-13.762c-4.234-2.179-7.361-4.254-9.092-5.79c-0.746-0.637-1.162-1.128-1.369-1.412
		c-0.235-3.072-0.374-6.047-0.374-8.87c0.028-17.492,4.304-30.264,10.905-40.282c9.894-14.979,25.766-24.147,42.344-30.388
		c8.261-3.114,16.605-5.48,24.271-7.535c7.68-2.062,14.627-3.77,20.411-5.805c8.026-2.844,17.366-6.961,25.254-12.433
		c3.929-2.754,7.541-5.846,10.406-9.596c2.822-3.708,4.996-8.358,4.996-13.658c0-3.799,0-8.102,0-12.938
		c16.605,10.731,46.536,22.389,46.536,22.389s29.932-11.658,46.524-22.389c0,4.836,0,9.14,0,12.938
		c-0.014,5.134,1.992,9.756,4.719,13.443c4.151,5.563,9.907,9.68,16.176,13.277c6.282,3.557,13.16,6.49,19.622,8.912
		c7.721,2.871,17.56,5.127,28.312,8.261c16.107,4.649,33.889,11.188,47.132,22.556c6.642,5.687,12.205,12.516,16.205,21.116
		c3.971,8.6,6.42,19.048,6.434,32.16C441.129,453.162,440.977,456.109,440.742,459.174z" style="fill: rgb(75, 75, 75);"></path>
	<path class="st0" d="M126.609,131.93c23.58-7.943,46.855-10.953,70.614-11.576l9.479,11.064l7.403-11.098
		c22.791,0.339,46.149,2.235,70.49,3.515l8.012,9.354l5.826-8.732c7.777,0.305,15.623,0.526,23.635,0.526
		c20.978,0,42.773-1.28,65.605-5.182c3.861-0.658,6.449-4.324,5.798-8.171c-0.665-3.86-4.318-6.449-8.178-5.791
		c-12.205,2.083-24.119,3.328-35.84,4.075l-8.137-9.492l-6.781,10.185c-4.179,0.11-8.344,0.2-12.468,0.2
		c-23.483,0.013-46.232-1.647-68.677-3.01l-8.607-10.032l-6.131,9.209c-10.461-0.533-20.895-0.92-31.315-0.92
		c-15.983,0-31.993,0.941-48.114,3.473l-5.895-6.407l-5.203,8.428c-8.636,1.778-17.312,4.013-26.043,6.96
		c-3.708,1.246-5.701,5.266-4.456,8.974C118.874,131.183,122.9,133.182,126.609,131.93z" style="fill: rgb(75, 75, 75);"></path>
</g>
</svg>
